<svg xmlns="http://www.w3.org/2000/svg" width="119.189" height="139.319" viewBox="0 0 119.189 139.319">
  <path id="bag" d="M101.661,37.27H89.125a29.636,29.636,0,0,0-59.062,0H17.528A17.528,17.528,0,0,0,0,54.8V131.92a17.528,17.528,0,0,0,17.528,17.528h84.133a17.528,17.528,0,0,0,17.528-17.528V54.8A17.528,17.528,0,0,0,101.661,37.27ZM59.595,17.113A22.737,22.737,0,0,1,82.114,37.27H37.075A22.737,22.737,0,0,1,59.595,17.113ZM112.178,131.92a10.517,10.517,0,0,1-10.517,10.517H17.528A10.517,10.517,0,0,1,7.011,131.92V54.8A10.517,10.517,0,0,1,17.528,44.281h84.133A10.517,10.517,0,0,1,112.178,54.8Z" transform="translate(0 -10.129)" fill="#d7d6d7"/>
</svg>
