<svg xmlns="http://www.w3.org/2000/svg" width="113.489" height="139.32" viewBox="0 0 113.489 139.32">
  <path id="apple-logo" d="M58,50.95c-5.5,0-14.022-6.257-22.993-6.031-11.836.151-22.691,6.86-28.8,17.489-12.288,21.334-3.166,52.845,8.82,70.184,5.88,8.443,12.816,17.942,22.013,17.64,8.82-.377,12.137-5.729,22.842-5.729,10.629,0,13.645,5.729,22.993,5.5,9.5-.151,15.529-8.594,21.334-17.113a75.763,75.763,0,0,0,9.649-19.826c-.226-.075-18.469-7.086-18.7-28.194-.151-17.64,14.4-26.083,15.077-26.46-8.292-12.137-21.033-13.494-25.48-13.8C73.156,43.713,63.432,50.95,58,50.95ZM77.6,33.159c4.9-5.88,8.142-14.1,7.237-22.239-7.011.3-15.454,4.674-20.5,10.554-4.523,5.2-8.443,13.569-7.388,21.56,7.765.6,15.756-4,20.656-9.876" transform="translate(-0.376 -10.92)" fill="#d7d6d7"/>
</svg>
